<svg width="260" height="73" viewBox="0 0 260 73" fill="none" xmlns="http://www.w3.org/2000/svg">
<path d="M0.0800781 11.68C0.0800781 5.22932 5.30939 0 11.7601 0H248.28C254.731 0 259.96 5.22931 259.96 11.68V61.32C259.96 67.7707 254.731 73 248.28 73H11.7601C5.30939 73 0.0800781 67.7707 0.0800781 61.32V11.68Z" fill="#FF813F"/>
<path d="M52.3367 24.0078L52.3046 23.9889L52.2305 23.9663C52.2603 23.9915 52.2977 24.0061 52.3367 24.0078Z" fill="#0D0C22"/>
<path d="M52.8049 27.3457L52.7695 27.3556L52.8049 27.3457Z" fill="#0D0C22"/>
<path d="M52.3482 24.0024C52.3441 24.0019 52.34 24.0009 52.3361 23.9995C52.3359 24.0022 52.3359 24.0049 52.3361 24.0076C52.3406 24.007 52.3448 24.0052 52.3482 24.0024Z" fill="#0D0C22"/>
<path d="M52.3359 24.0094H52.3424V24.0054L52.3359 24.0094Z" fill="#0D0C22"/>
<path d="M52.7754 27.3394L52.8294 27.3086L52.8496 27.2973L52.8678 27.2778C52.8335 27.2926 52.8022 27.3135 52.7754 27.3394Z" fill="#0D0C22"/>
<path d="M52.4285 24.0812L52.3757 24.031L52.3398 24.0115C52.3591 24.0454 52.3909 24.0705 52.4285 24.0812Z" fill="#0D0C22"/>
<path d="M39.1465 56.469C39.1044 56.4872 39.0674 56.5158 39.0391 56.552L39.0724 56.5306C39.095 56.5098 39.1271 56.4853 39.1465 56.469Z" fill="#0D0C22"/>
<path d="M46.8583 54.9518C46.8583 54.9041 46.8351 54.9129 46.8407 55.0826C46.8407 55.0687 46.8464 55.0549 46.8489 55.0417C46.852 55.0115 46.8546 54.982 46.8583 54.9518Z" fill="#0D0C22"/>
<path d="M46.0645 56.469C46.0223 56.4872 45.9854 56.5158 45.957 56.552L45.9903 56.5306C46.013 56.5098 46.045 56.4853 46.0645 56.469Z" fill="#0D0C22"/>
<path d="M33.7108 56.8301C33.6788 56.8023 33.6396 56.784 33.5977 56.7773C33.6316 56.7937 33.6655 56.81 33.6882 56.8226L33.7108 56.8301Z" fill="#0D0C22"/>
<path d="M32.4919 55.6598C32.4869 55.6103 32.4717 55.5624 32.4473 55.519C32.4646 55.5642 32.4791 55.6104 32.4906 55.6573L32.4919 55.6598Z" fill="#0D0C22"/>
<path d="M40.7012 34.7221C39.023 35.4405 37.1186 36.2551 34.6503 36.2551C33.6178 36.2531 32.5903 36.1114 31.5957 35.834L33.3028 53.3605C33.3632 54.093 33.6969 54.7761 34.2377 55.2739C34.7784 55.7718 35.4866 56.0482 36.2217 56.048C36.2217 56.048 38.6421 56.1737 39.4498 56.1737C40.319 56.1737 42.9255 56.048 42.9255 56.048C43.6605 56.048 44.3685 55.7716 44.9091 55.2737C45.4497 54.7759 45.7834 54.0929 45.8438 53.3605L47.6721 33.993C46.8551 33.714 46.0304 33.5286 45.1008 33.5286C43.4931 33.5279 42.1977 34.0817 40.7012 34.7221Z" fill="#FFDD00"/>
<path d="M26.3145 27.2449L26.3434 27.2719L26.3622 27.2832C26.3477 27.2688 26.3317 27.2559 26.3145 27.2449Z" fill="#0D0C22"/>
<path d="M55.5707 25.6274L55.3136 24.3307C55.083 23.1673 54.5594 22.068 53.3652 21.6475C52.9824 21.513 52.5481 21.4552 52.2546 21.1768C51.9611 20.8983 51.8743 20.4659 51.8065 20.0649C51.6808 19.3289 51.5626 18.5923 51.4338 17.8575C51.3225 17.2259 51.2345 16.5163 50.9448 15.9368C50.5676 15.1586 49.7851 14.7036 49.007 14.4025C48.6083 14.2537 48.2014 14.1278 47.7883 14.0254C45.8443 13.5125 43.8003 13.324 41.8003 13.2165C39.3998 13.084 36.9929 13.1239 34.598 13.3359C32.8155 13.4981 30.9381 13.6942 29.2443 14.3108C28.6252 14.5364 27.9872 14.8073 27.5164 15.2856C26.9388 15.8733 26.7503 16.7821 27.172 17.515C27.4718 18.0354 27.9797 18.4031 28.5183 18.6463C29.2199 18.9597 29.9527 19.1982 30.7043 19.3578C32.7973 19.8204 34.9651 20.0021 37.1034 20.0794C39.4733 20.175 41.847 20.0975 44.2057 19.8474C44.789 19.7833 45.3712 19.7064 45.9524 19.6168C46.6368 19.5118 47.0762 18.6168 46.8744 17.9933C46.6331 17.2479 45.9844 16.9587 45.2509 17.0712C45.1428 17.0882 45.0354 17.1039 44.9272 17.1196L44.8493 17.131C44.6008 17.1624 44.3524 17.1917 44.1039 17.219C43.5906 17.2743 43.076 17.3195 42.5602 17.3547C41.405 17.4352 40.2466 17.4722 39.0889 17.4741C37.9512 17.4741 36.813 17.4421 35.6779 17.3673C35.1599 17.3333 34.6433 17.2902 34.1279 17.2378C33.8935 17.2133 33.6597 17.1875 33.4258 17.1586L33.2033 17.1303L33.155 17.1234L32.9243 17.0901C32.4529 17.0191 31.9815 16.9374 31.5151 16.8387C31.4681 16.8283 31.426 16.8021 31.3958 16.7645C31.3656 16.7269 31.3492 16.6801 31.3492 16.6319C31.3492 16.5837 31.3656 16.5369 31.3958 16.4993C31.426 16.4617 31.4681 16.4356 31.5151 16.4251H31.5239C31.9281 16.339 32.3353 16.2655 32.7439 16.2014C32.8801 16.18 33.0167 16.159 33.1537 16.1385H33.1575C33.4133 16.1215 33.6703 16.0757 33.9249 16.0455C36.1396 15.8151 38.3675 15.7366 40.5929 15.8104C41.6734 15.8419 42.7532 15.9053 43.8286 16.0147C44.0599 16.0386 44.2899 16.0637 44.52 16.092C44.608 16.1027 44.6966 16.1153 44.7852 16.1259L44.9637 16.1517C45.4841 16.2292 46.0018 16.3233 46.5168 16.4339C47.2798 16.5999 48.2597 16.6539 48.5991 17.4898C48.7072 17.7551 48.7562 18.0499 48.8159 18.3283L48.892 18.6834C48.894 18.6898 48.8954 18.6963 48.8964 18.7029C49.0761 19.5409 49.2561 20.379 49.4363 21.217C49.4495 21.2789 49.4498 21.3429 49.4372 21.4049C49.4246 21.4669 49.3993 21.5257 49.363 21.5776C49.3267 21.6294 49.2801 21.6732 49.2261 21.7062C49.172 21.7392 49.1118 21.7608 49.0491 21.7695H49.0441L48.9341 21.7846L48.8254 21.799C48.4809 21.8439 48.1361 21.8858 47.7908 21.9247C47.1107 22.0022 46.4296 22.0693 45.7475 22.1259C44.3919 22.2386 43.0337 22.3125 41.6727 22.3477C40.9793 22.3662 40.286 22.3748 39.5929 22.3735C36.8343 22.3713 34.0781 22.211 31.3379 21.8933C31.0412 21.8581 30.7446 21.8204 30.4479 21.7821C30.6779 21.8116 30.2807 21.7594 30.2002 21.7481C30.0117 21.7217 29.8231 21.6943 29.6346 21.6658C29.0016 21.5709 28.3725 21.454 27.7408 21.3515C26.9772 21.2258 26.2468 21.2887 25.5561 21.6658C24.9891 21.976 24.5302 22.4518 24.2406 23.0297C23.9426 23.6456 23.854 24.3163 23.7208 24.9781C23.5875 25.6399 23.3801 26.3521 23.4587 27.0315C23.6277 28.4979 24.6529 29.6895 26.1274 29.956C27.5146 30.2074 28.9093 30.4111 30.3077 30.5846C35.8012 31.2574 41.3511 31.3379 46.8619 30.8247C47.3106 30.7828 47.7588 30.7371 48.2063 30.6876C48.346 30.6723 48.4875 30.6884 48.6202 30.7348C48.753 30.7812 48.8737 30.8566 48.9735 30.9557C49.0732 31.0548 49.1496 31.1749 49.197 31.3073C49.2443 31.4397 49.2614 31.5811 49.2471 31.7209L49.1076 33.0773C48.8264 35.8181 48.5453 38.5587 48.2641 41.299C47.9708 44.1769 47.6756 47.0545 47.3785 49.9319C47.2947 50.7422 47.2109 51.5524 47.1271 52.3624C47.0466 53.16 47.0353 53.9827 46.8838 54.7709C46.645 56.0103 45.8059 56.7715 44.5816 57.0499C43.4599 57.3052 42.314 57.4392 41.1636 57.4497C39.8883 57.4566 38.6137 57.4 37.3384 57.4069C35.977 57.4145 34.3096 57.2887 33.2587 56.2756C32.3354 55.3856 32.2078 53.9921 32.0821 52.7872C31.9144 51.192 31.7483 49.5971 31.5836 48.0023L30.6597 39.1344L30.062 33.3966C30.0519 33.3017 30.0419 33.208 30.0324 33.1125C29.9608 32.428 29.4762 31.758 28.7125 31.7926C28.0589 31.8215 27.3159 32.3771 27.3926 33.1125L27.8357 37.3664L28.7521 46.1657C29.0132 48.6652 29.2736 51.165 29.5334 53.6653C29.5837 54.1442 29.6308 54.6244 29.6836 55.1034C29.9708 57.7205 31.9695 59.131 34.4447 59.5282C35.8903 59.7607 37.3711 59.8085 38.8381 59.8324C40.7186 59.8626 42.618 59.9348 44.4678 59.5942C47.2088 59.0914 49.2653 57.2611 49.5589 54.422C49.6427 53.6024 49.7265 52.7826 49.8103 51.9626C50.0889 49.2507 50.3671 46.5386 50.6449 43.8263L51.5538 34.9641L51.9705 30.9026C51.9913 30.7012 52.0763 30.5118 52.2131 30.3625C52.3498 30.2132 52.531 30.1119 52.7298 30.0736C53.5135 29.9208 54.2627 29.66 54.8202 29.0635C55.7077 28.1138 55.8843 26.8756 55.5707 25.6274ZM26.0872 26.5035C26.0991 26.4979 26.0771 26.6003 26.0677 26.6481C26.0658 26.5758 26.0696 26.5117 26.0872 26.5035ZM26.1632 27.0918C26.1695 27.0874 26.1884 27.1126 26.2078 27.1428C26.1783 27.1151 26.1595 27.0944 26.1626 27.0918H26.1632ZM26.238 27.1905C26.265 27.2364 26.2795 27.2653 26.238 27.1905V27.1905ZM26.3882 27.3125H26.392C26.392 27.3169 26.3989 27.3213 26.4014 27.3257C26.3973 27.3208 26.3926 27.3164 26.3876 27.3125H26.3882ZM52.6933 27.1302C52.4117 27.3979 51.9875 27.5224 51.5683 27.5846C46.8669 28.2823 42.097 28.6355 37.3441 28.4796C33.9425 28.3633 30.5767 27.9856 27.2091 27.5098C26.8791 27.4633 26.5215 27.403 26.2946 27.1597C25.8672 26.7009 26.0771 25.777 26.1884 25.2226C26.2902 24.7148 26.485 24.0378 27.089 23.9656C28.0318 23.8549 29.1267 24.2528 30.0595 24.3942C31.1824 24.5656 32.3096 24.7028 33.4409 24.8059C38.2693 25.2459 43.1787 25.1774 47.9857 24.5337C48.8618 24.416 49.7348 24.2792 50.6047 24.1233C51.3797 23.9844 52.2389 23.7236 52.7071 24.5262C53.0283 25.073 53.0711 25.8046 53.0214 26.4225C53.0061 26.6917 52.8885 26.9448 52.6927 27.1302H52.6933Z" fill="#0D0C22"/>
<path fill-rule="evenodd" clip-rule="evenodd" d="M81.2083 40.1929C80.9337 40.7169 80.5562 41.1732 80.0759 41.5604C79.5956 41.9479 79.0352 42.2633 78.3947 42.5062C77.7542 42.7497 77.1097 42.9131 76.4616 42.9964C75.8133 43.0799 75.1841 43.0727 74.5744 42.9735C73.9644 42.8749 73.4455 42.6737 73.0189 42.3695L73.4995 37.3779C73.9415 37.2261 74.4978 37.0703 75.169 36.9107C75.84 36.7513 76.5301 36.6371 77.2394 36.5689C77.9487 36.5003 78.6193 36.5084 79.2526 36.5917C79.8849 36.6753 80.3847 36.8765 80.7506 37.1958C80.9488 37.378 81.1169 37.5754 81.2541 37.7883C81.3911 38.0011 81.475 38.2214 81.5057 38.4493C81.5818 39.0875 81.4828 39.6687 81.2083 40.1929ZM74.2311 29.5602C74.5515 29.3627 74.9366 29.1877 75.3864 29.0356C75.8362 28.8841 76.2977 28.7774 76.7704 28.7167C77.2429 28.6562 77.7043 28.6481 78.1544 28.6938C78.604 28.7395 79.001 28.8647 79.344 29.0697C79.687 29.2751 79.9424 29.5714 80.1101 29.9586C80.2779 30.3464 80.3237 30.8365 80.2474 31.429C80.1865 31.9001 79.9993 32.2991 79.687 32.6256C79.3745 32.9526 78.9928 33.2259 78.5433 33.4462C78.0935 33.6668 77.617 33.8415 77.1137 33.9702C76.6102 34.0997 76.1259 34.1949 75.661 34.2553C75.1957 34.3163 74.7918 34.3545 74.4488 34.3692C74.1054 34.3845 73.8802 34.3921 73.7737 34.3921L74.2311 29.5602ZM83.6788 36.9676C83.4348 36.4361 83.1068 35.9689 82.6953 35.5658C82.2835 35.1633 81.7951 34.8709 81.2312 34.6885C81.475 34.491 81.7153 34.1795 81.9518 33.7539C82.188 33.3288 82.39 32.865 82.5577 32.3636C82.7255 31.8619 82.8401 31.357 82.9011 30.8478C82.9617 30.3389 82.9388 29.902 82.8326 29.537C82.5728 28.6256 82.1651 27.9114 81.6085 27.3946C81.0516 26.8782 80.4038 26.5211 79.6641 26.3233C78.9243 26.1264 78.1086 26.0842 77.2165 26.1981C76.3244 26.312 75.4128 26.5361 74.483 26.8704C74.483 26.7946 74.4905 26.7148 74.5059 26.6312C74.5207 26.548 74.5286 26.4604 74.5286 26.369C74.5286 26.1411 74.4142 25.9439 74.1855 25.7765C73.9568 25.6093 73.6936 25.5107 73.3965 25.4801C73.099 25.45 72.8091 25.5142 72.527 25.6738C72.2446 25.8334 72.0502 26.1264 71.9437 26.5511C71.8215 27.9189 71.6996 29.3398 71.5777 30.8134C71.4555 32.2875 71.3261 33.7767 71.1888 35.2812C71.0516 36.7855 70.9143 38.2784 70.777 39.7598C70.6398 41.2414 70.5025 42.6659 70.3652 44.0333C70.4111 44.4436 70.5254 44.7629 70.7086 44.9907C70.8914 45.2189 71.105 45.3556 71.349 45.401C71.5928 45.4467 71.8485 45.4045 72.1152 45.2755C72.3819 45.1469 72.6146 44.9222 72.8131 44.6032C73.4229 44.9375 74.1092 45.1541 74.8719 45.253C75.6343 45.3516 76.4079 45.3516 77.1938 45.253C77.9788 45.1541 78.7528 44.9682 79.5155 44.6943C80.2779 44.4211 80.9718 44.079 81.5972 43.669C82.2223 43.2586 82.7484 42.7911 83.1756 42.2671C83.6025 41.7426 83.8846 41.1767 84.0218 40.5691C84.1591 39.946 84.1971 39.3231 84.1362 38.7C84.0752 38.0771 83.9226 37.5 83.6788 36.9676Z" fill="white"/>
<path fill-rule="evenodd" clip-rule="evenodd" d="M105.996 49.0017C105.912 49.5031 105.793 50.0311 105.641 50.586C105.488 51.1403 105.309 51.6458 105.103 52.1018C104.898 52.5575 104.669 52.9256 104.417 53.207C104.165 53.488 103.895 53.606 103.605 53.5606C103.376 53.5297 103.231 53.3854 103.171 53.1274C103.109 52.8686 103.109 52.5497 103.171 52.17C103.231 51.7901 103.349 51.3607 103.525 50.8821C103.7 50.4035 103.914 49.9284 104.165 49.4577C104.417 48.9864 104.703 48.5347 105.023 48.1015C105.344 47.6686 105.679 47.3075 106.03 47.0189C106.106 47.11 106.14 47.3378 106.133 47.7028C106.125 48.0674 106.079 48.5006 105.996 49.0017ZM113.75 39.1097C113.544 38.8819 113.293 38.7529 112.995 38.7223C112.698 38.6919 112.397 38.859 112.092 39.2237C111.893 39.5883 111.642 39.9379 111.337 40.2722C111.032 40.6067 110.715 40.9103 110.388 41.1839C110.06 41.4572 109.747 41.6931 109.45 41.8903C109.152 42.0881 108.92 42.2324 108.752 42.3235C108.691 41.8374 108.656 41.3132 108.649 40.7507C108.641 40.1886 108.653 39.619 108.683 39.0415C108.729 38.2209 108.824 37.393 108.969 36.557C109.114 35.7213 109.324 34.9007 109.598 34.0951C109.598 33.67 109.499 33.3242 109.301 33.0582C109.103 32.7924 108.863 32.625 108.58 32.5567C108.298 32.4885 108.009 32.5264 107.711 32.6707C107.414 32.8153 107.158 33.0775 106.945 33.4569C106.762 33.9586 106.552 34.5207 106.316 35.1436C106.079 35.7667 105.812 36.4012 105.515 37.0469C105.218 37.6931 104.886 38.3197 104.52 38.9273C104.154 39.5354 103.754 40.075 103.319 40.5457C102.885 41.0168 102.411 41.3854 101.901 41.6512C101.39 41.9172 100.837 42.0349 100.242 42.0045C99.9676 41.9285 99.7694 41.7235 99.6475 41.3889C99.5254 41.0549 99.4531 40.6368 99.4305 40.1354C99.4075 39.634 99.4305 39.0831 99.499 38.4828C99.5677 37.8828 99.6591 37.2863 99.7735 36.6938C99.8878 36.101 100.014 35.5389 100.151 35.0071C100.288 34.4753 100.417 34.0268 100.54 33.6622C100.723 33.2218 100.723 32.8529 100.54 32.5567C100.357 32.2604 100.105 32.0631 99.7851 31.964C99.4647 31.8654 99.1289 31.8694 98.7784 31.9755C98.4275 32.0819 98.1759 32.3173 98.0235 32.682C97.7641 33.3054 97.5276 34.004 97.3143 34.779C97.1007 35.5539 96.9292 36.3558 96.7997 37.1836C96.6697 38.0121 96.5972 38.8327 96.5821 39.6456C96.5812 39.6985 96.5838 39.7488 96.5835 39.8014C96.2509 40.6848 95.934 41.3525 95.6331 41.7992C95.2442 42.377 94.8054 42.6277 94.3176 42.5513C94.1037 42.4603 93.9632 42.2477 93.8947 41.9132C93.8254 41.5792 93.8028 41.1689 93.8254 40.6822C93.8489 40.1964 93.9061 39.6456 93.9972 39.0299C94.0892 38.4146 94.2029 37.7764 94.3402 37.1154C94.4778 36.4541 94.6226 35.7899 94.7749 35.121C94.9273 34.4525 95.0646 33.8218 95.187 33.2291C95.1717 32.6973 95.0152 32.291 94.7178 32.0097C94.4206 31.7289 94.0047 31.6187 93.4713 31.6791C93.1054 31.8312 92.8343 32.029 92.659 32.2719C92.4835 32.5148 92.3424 32.8265 92.2359 33.2062C92.1747 33.404 92.0833 33.799 91.9614 34.3918C91.8392 34.984 91.6831 35.6644 91.4924 36.4315C91.3017 37.1992 91.0768 38.0005 90.8177 38.8362C90.5582 39.6719 90.2686 40.4283 89.9485 41.1041C89.6281 41.7801 89.2772 42.3235 88.8962 42.7338C88.5149 43.1438 88.1031 43.3113 87.6608 43.2352C87.4167 43.1895 87.2606 42.9388 87.1921 42.4831C87.1233 42.0271 87.112 41.4653 87.1576 40.7964C87.2034 40.1279 87.2948 39.3946 87.4321 38.5971C87.5694 37.7993 87.7101 37.0434 87.8552 36.3289C88 35.6149 88.1335 34.984 88.2557 34.4372C88.3776 33.8901 88.4615 33.5254 88.5073 33.3433C88.5073 32.9026 88.4078 32.5495 88.2099 32.2832C88.0114 32.0178 87.7714 31.8503 87.4893 31.7818C87.2069 31.7136 86.9173 31.7514 86.6201 31.8957C86.3226 32.0403 86.0673 32.3026 85.8537 32.682C85.7773 33.0923 85.6781 33.5674 85.5562 34.1067C85.434 34.6459 85.3162 35.2006 85.2019 35.7705C85.0875 36.3404 84.9804 36.8988 84.8815 37.4459C84.7822 37.993 84.71 38.4716 84.6641 38.8819C84.6336 39.2008 84.5991 39.5923 84.5614 40.0556C84.5231 40.5194 84.5039 41.0092 84.5039 41.5257C84.5039 42.0427 84.5419 42.5554 84.6185 43.0643C84.6946 43.5735 84.8318 44.0408 85.0301 44.4659C85.2283 44.8915 85.5066 45.2408 85.8653 45.5144C86.2234 45.7879 86.6773 45.9397 87.2263 45.9704C87.7902 46.0005 88.2821 45.9591 88.7018 45.8449C89.1211 45.731 89.5022 45.5523 89.8455 45.3091C90.1885 45.0665 90.5011 44.7776 90.7834 44.443C91.0652 44.1091 91.3438 43.7444 91.6184 43.3491C91.8775 43.9269 92.213 44.3748 92.6248 44.694C93.0366 45.013 93.4713 45.2032 93.9287 45.2637C94.3861 45.3241 94.8516 45.2602 95.3243 45.0699C95.7968 44.8803 96.2237 44.5573 96.6053 44.1012C96.8563 43.8216 97.0931 43.5038 97.3154 43.1525C97.4097 43.317 97.5102 43.4758 97.623 43.6224C97.9968 44.1091 98.5041 44.443 99.1446 44.6255C99.8307 44.808 100.501 44.8386 101.157 44.7169C101.813 44.5954 102.438 44.3748 103.033 44.0559C103.628 43.7366 104.181 43.3532 104.692 42.9047C105.202 42.4565 105.648 41.9895 106.03 41.5028C106.014 41.8524 106.007 42.1832 106.007 42.4944C106.007 42.8061 105.999 43.1438 105.984 43.5088C105.221 44.0408 104.501 44.679 103.822 45.4233C103.144 46.1676 102.549 46.9616 102.038 47.8051C101.527 48.6483 101.127 49.5031 100.837 50.3691C100.547 51.2357 100.406 52.0445 100.414 52.7969C100.422 53.549 100.601 54.206 100.951 54.7681C101.302 55.3306 101.874 55.7331 102.667 55.9763C103.491 56.2348 104.215 56.242 104.841 55.9991C105.466 55.7559 106.011 55.3531 106.476 54.791C106.941 54.2289 107.322 53.549 107.62 52.7512C107.917 51.9534 108.154 51.1215 108.329 50.2555C108.504 49.3894 108.615 48.5379 108.661 47.7028C108.706 46.8668 108.706 46.1219 108.661 45.4687C109.972 44.9219 111.047 44.2305 111.886 43.3945C112.725 42.5594 113.418 41.6778 113.968 40.7507C114.135 40.5229 114.192 40.2493 114.139 39.9304C114.086 39.6111 113.956 39.3376 113.75 39.1097Z" fill="white"/>
<path fill-rule="evenodd" clip-rule="evenodd" d="M142.61 37.6515C142.655 37.3022 142.724 36.9335 142.815 36.546C142.907 36.1585 143.021 35.7823 143.159 35.4177C143.296 35.0531 143.456 34.7379 143.639 34.4718C143.822 34.2061 144.017 34.0161 144.222 33.9019C144.428 33.7883 144.638 33.7995 144.852 33.936C145.08 34.0731 145.221 34.3617 145.275 34.8021C145.328 35.2433 145.275 35.7141 145.114 36.2155C144.954 36.7172 144.668 37.1879 144.257 37.6286C143.845 38.0696 143.288 38.3579 142.587 38.4947C142.556 38.2824 142.564 38.0011 142.61 37.6515ZM150.536 38.5857C150.284 38.5103 150.044 38.5025 149.815 38.5632C149.587 38.6239 149.441 38.7835 149.381 39.042C149.258 39.5281 149.064 40.0258 148.797 40.5347C148.53 41.0439 148.203 41.5262 147.814 41.9822C147.425 42.438 146.986 42.8408 146.498 43.1901C146.01 43.5397 145.5 43.7904 144.966 43.9422C144.432 44.1096 143.99 44.1284 143.639 43.9991C143.288 43.8705 143.01 43.6498 142.804 43.3384C142.598 43.027 142.449 42.6508 142.358 42.2101C142.266 41.7694 142.213 41.3137 142.198 40.8424C143.067 40.9034 143.841 40.7478 144.52 40.3751C145.198 40.0032 145.774 39.509 146.247 38.8937C146.719 38.2784 147.078 37.587 147.322 36.8195C147.566 36.0524 147.703 35.2887 147.734 34.5288C147.749 33.8146 147.642 33.2108 147.413 32.7169C147.185 32.2233 146.876 31.839 146.487 31.5658C146.098 31.2922 145.652 31.1326 145.149 31.0872C144.646 31.0415 144.134 31.11 143.616 31.2922C142.99 31.505 142.461 31.8506 142.026 32.3294C141.592 32.808 141.229 33.3629 140.94 33.9933C140.65 34.6239 140.421 35.3038 140.253 36.033C140.085 36.7626 139.964 37.4806 139.888 38.1873C139.819 38.8214 139.782 39.4278 139.769 40.013C139.737 40.0874 139.705 40.1588 139.67 40.2383C139.434 40.7782 139.159 41.3062 138.847 41.8226C138.534 42.3394 138.187 42.7725 137.806 43.1218C137.425 43.4714 137.028 43.5929 136.616 43.4865C136.372 43.426 136.239 43.1444 136.216 42.6433C136.193 42.1416 136.22 41.5187 136.296 40.7741C136.372 40.0298 136.46 39.2239 136.559 38.3579C136.658 37.4918 136.708 36.664 136.708 35.8737C136.708 35.1898 136.578 34.5329 136.319 33.9019C136.059 33.2718 135.705 32.7473 135.255 32.3294C134.805 31.9113 134.283 31.634 133.688 31.4975C133.093 31.3605 132.453 31.4518 131.767 31.7708C131.08 32.09 130.535 32.5382 130.131 33.1157C129.727 33.6934 129.357 34.3009 129.022 34.9391C128.899 34.4528 128.721 34.0011 128.484 33.583C128.248 33.1651 127.958 32.8005 127.615 32.4888C127.272 32.1776 126.886 31.9344 126.46 31.7595C126.033 31.5851 125.583 31.4975 125.11 31.4975C124.652 31.4975 124.229 31.5851 123.84 31.7595C123.452 31.9344 123.097 32.1583 122.777 32.4318C122.456 32.7056 122.167 33.013 121.907 33.3551C121.648 33.6969 121.419 34.0352 121.221 34.3692C121.19 33.9742 121.156 33.6286 121.118 33.332C121.08 33.0359 121.011 32.7852 120.912 32.5801C120.813 32.3748 120.672 32.2193 120.489 32.1129C120.306 32.0067 120.047 31.9532 119.712 31.9532C119.544 31.9532 119.376 31.9874 119.208 32.0556C119.04 32.1241 118.891 32.2193 118.762 32.3407C118.632 32.4627 118.533 32.6105 118.465 32.7852C118.396 32.9598 118.377 33.1614 118.407 33.3892C118.423 33.5566 118.465 33.7576 118.533 33.9933C118.602 34.2289 118.667 34.5369 118.728 34.9163C118.789 35.2962 118.838 35.756 118.876 36.2953C118.914 36.8349 118.926 37.4959 118.911 38.2784C118.895 39.0611 118.838 39.9763 118.739 41.0248C118.64 42.0733 118.483 43.289 118.27 44.6714C118.24 44.9907 118.362 45.2492 118.636 45.4467C118.911 45.6439 119.223 45.7578 119.574 45.7885C119.925 45.8188 120.257 45.7578 120.569 45.6063C120.882 45.4539 121.061 45.1882 121.107 44.8085C121.153 44.0943 121.24 43.3347 121.37 42.529C121.499 41.724 121.66 40.9262 121.85 40.1359C122.041 39.346 122.258 38.5938 122.502 37.8793C122.746 37.1651 123.017 36.5347 123.314 35.9876C123.612 35.4405 123.921 35.0039 124.241 34.6771C124.561 34.3504 124.896 34.187 125.247 34.187C125.674 34.187 126.006 34.3805 126.242 34.7679C126.478 35.1557 126.646 35.6536 126.746 36.2609C126.845 36.869 126.89 37.5341 126.883 38.2555C126.875 38.9773 126.845 39.6724 126.791 40.341C126.738 41.0098 126.677 41.606 126.608 42.1303C126.54 42.6545 126.49 43.0157 126.46 43.2129C126.46 43.5625 126.593 43.8395 126.86 44.0448C127.126 44.2498 127.424 44.3716 127.752 44.4095C128.08 44.4476 128.389 44.3866 128.679 44.227C128.968 44.0674 129.136 43.7982 129.182 43.4179C129.334 42.324 129.544 41.2264 129.811 40.1247C130.077 39.023 130.383 38.0355 130.726 37.1616C131.069 36.2878 131.45 35.5735 131.87 35.0189C132.289 34.4646 132.735 34.187 133.208 34.187C133.452 34.187 133.639 34.3544 133.768 34.6884C133.898 35.0227 133.963 35.4784 133.963 36.0559C133.963 36.4815 133.928 36.9184 133.86 37.3666C133.791 37.8148 133.711 38.2784 133.62 38.7569C133.528 39.2358 133.448 39.7256 133.379 40.227C133.311 40.7287 133.277 41.2527 133.277 41.7998C133.277 42.1797 133.315 42.6204 133.391 43.1218C133.467 43.6229 133.612 44.0983 133.825 44.5462C134.039 44.9947 134.332 45.3744 134.706 45.6858C135.08 45.9973 135.556 46.1531 136.136 46.1531C137.005 46.1531 137.775 45.9669 138.446 45.5947C139.117 45.2226 139.693 44.7365 140.173 44.1362C140.198 44.1047 140.221 44.0711 140.245 44.0399C140.282 44.1287 140.315 44.2227 140.356 44.3071C140.684 44.9756 141.13 45.4921 141.695 45.857C142.259 46.2216 142.922 46.4229 143.685 46.4611C144.447 46.4987 145.278 46.3581 146.178 46.0392C146.849 45.796 147.432 45.4921 147.928 45.1275C148.423 44.7628 148.869 44.3184 149.266 43.7941C149.663 43.2699 150.025 42.6658 150.353 41.9822C150.681 41.2981 151.012 40.5159 151.348 39.6342C151.409 39.3916 151.352 39.1751 151.177 38.9848C151.001 38.7951 150.788 38.6621 150.536 38.5857Z" fill="white"/>
<path fill-rule="evenodd" clip-rule="evenodd" d="M162.967 36.0434C162.89 36.4918 162.787 36.986 162.658 37.525C162.528 38.0646 162.364 38.623 162.166 39.2004C161.968 39.7779 161.724 40.2984 161.434 40.7616C161.144 41.2254 160.813 41.5935 160.439 41.8671C160.065 42.1406 159.635 42.2546 159.147 42.2089C158.902 42.1788 158.716 42.0117 158.586 41.7075C158.456 41.4038 158.388 41.0161 158.38 40.545C158.373 40.0743 158.414 39.5575 158.506 38.9951C158.597 38.4333 158.738 37.8821 158.929 37.3426C159.12 36.8036 159.353 36.3056 159.627 35.8496C159.901 35.3939 160.218 35.0405 160.576 34.7898C160.934 34.5391 161.327 34.4217 161.754 34.4365C162.181 34.4518 162.639 34.6643 163.127 35.0747C163.096 35.2725 163.043 35.5954 162.967 36.0434ZM171.099 37.787C170.862 37.6656 170.618 37.6392 170.367 37.7075C170.116 37.7757 169.936 38.0076 169.829 38.4026C169.768 38.8283 169.631 39.3294 169.418 39.9069C169.204 40.4843 168.941 41.0317 168.628 41.5478C168.316 42.0646 167.957 42.494 167.553 42.8358C167.149 43.1778 166.718 43.3337 166.261 43.3028C165.879 43.2727 165.612 43.079 165.46 42.7218C165.307 42.3647 165.228 41.9168 165.22 41.3769C165.212 40.838 165.266 40.2301 165.38 39.5538C165.495 38.8777 165.632 38.2054 165.792 37.5363C165.952 36.868 166.116 36.2258 166.284 35.6105C166.451 34.9951 166.588 34.4747 166.696 34.0493C166.818 33.6693 166.779 33.3466 166.581 33.0803C166.383 32.8149 166.135 32.6246 165.838 32.5107C165.54 32.3967 165.239 32.3664 164.934 32.4196C164.629 32.4728 164.431 32.6362 164.339 32.9094C163.439 32.1345 162.574 31.7166 161.743 31.6559C160.912 31.5952 160.145 31.7776 159.444 32.203C158.742 32.6284 158.121 33.2437 157.58 34.0493C157.038 34.8549 156.6 35.7322 156.264 36.6818C155.929 37.6314 155.719 38.6004 155.635 39.5879C155.551 40.5757 155.616 41.4761 155.83 42.289C156.043 43.1018 156.42 43.7669 156.962 44.283C157.503 44.7998 158.239 45.0583 159.169 45.0583C159.581 45.0583 159.978 44.9747 160.359 44.8076C160.74 44.6401 161.091 44.4426 161.411 44.2148C161.731 43.9869 162.013 43.7475 162.258 43.4968C162.501 43.2461 162.692 43.0373 162.83 42.8699C162.936 43.417 163.112 43.8808 163.356 44.2605C163.599 44.6401 163.878 44.9521 164.191 45.1948C164.503 45.4376 164.831 45.6164 165.174 45.7306C165.517 45.8445 165.849 45.9015 166.169 45.9015C166.886 45.9015 167.557 45.6583 168.182 45.1719C168.808 44.6861 169.368 44.0893 169.864 43.3829C170.359 42.6762 170.767 41.9319 171.087 41.1491C171.408 40.3666 171.621 39.6715 171.728 39.0634C171.835 38.8355 171.816 38.5964 171.671 38.3457C171.526 38.095 171.335 37.909 171.099 37.787Z" fill="white"/>
<path fill-rule="evenodd" clip-rule="evenodd" d="M212.274 50.3701C212.144 50.8866 211.942 51.3238 211.667 51.6806C211.393 52.0377 211.05 52.2239 210.638 52.2393C210.379 52.2543 210.181 52.1175 210.043 51.8289C209.906 51.5401 209.811 51.1679 209.758 50.7122C209.704 50.2562 209.681 49.747 209.689 49.1849C209.696 48.6227 209.719 48.0681 209.758 47.521C209.795 46.9742 209.841 46.4647 209.895 45.9939C209.948 45.5226 209.99 45.1586 210.021 44.9C210.539 44.9608 210.97 45.1846 211.313 45.5723C211.656 45.9598 211.919 46.4193 212.102 46.9514C212.285 47.4831 212.392 48.0568 212.423 48.6722C212.453 49.2875 212.403 49.8534 212.274 50.3701ZM203.993 50.3701C203.863 50.8866 203.661 51.3238 203.387 51.6806C203.112 52.0377 202.769 52.2239 202.357 52.2393C202.098 52.2543 201.9 52.1175 201.763 51.8289C201.625 51.5401 201.53 51.1679 201.477 50.7122C201.423 50.2562 201.4 49.747 201.408 49.1849C201.416 48.6227 201.439 48.0681 201.477 47.521C201.515 46.9742 201.56 46.4647 201.614 45.9939C201.667 45.5226 201.709 45.1586 201.74 44.9C202.258 44.9608 202.689 45.1846 203.032 45.5723C203.375 45.9598 203.638 46.4193 203.821 46.9514C204.005 47.4831 204.111 48.0568 204.142 48.6722C204.172 49.2875 204.122 49.8534 203.993 50.3701ZM195.495 37.4241C195.479 37.7884 195.445 38.1114 195.392 38.3925C195.338 38.6741 195.266 38.8522 195.175 38.9283C195.007 38.8369 194.801 38.6018 194.557 38.2216C194.313 37.8419 194.122 37.4122 193.985 36.9336C193.848 36.4551 193.805 35.9843 193.859 35.5205C193.912 35.0573 194.153 34.6967 194.58 34.4379C194.747 34.3468 194.892 34.3809 195.014 34.5405C195.136 34.7001 195.235 34.9318 195.312 35.2357C195.388 35.5399 195.441 35.8892 195.472 36.2842C195.502 36.6795 195.51 37.0591 195.495 37.4241ZM193.47 41.9711C193.234 42.2215 192.971 42.4381 192.681 42.6206C192.391 42.803 192.094 42.9398 191.789 43.0309C191.484 43.1223 191.209 43.1448 190.965 43.0991C190.279 42.9627 189.753 42.666 189.387 42.2103C189.021 41.7545 188.788 41.219 188.689 40.6037C188.59 39.9881 188.601 39.3308 188.724 38.6319C188.846 37.933 189.051 37.2835 189.341 36.6832C189.631 36.0829 189.982 35.5662 190.393 35.1333C190.805 34.7001 191.255 34.4306 191.743 34.3239C191.56 35.0989 191.499 35.9007 191.56 36.7286C191.621 37.5568 191.82 38.3355 192.155 39.0648C192.368 39.506 192.624 39.9082 192.921 40.2729C193.219 40.6378 193.581 40.9492 194.008 41.2075C193.886 41.466 193.706 41.7204 193.47 41.9711ZM218.782 37.6519C218.827 37.3026 218.896 36.9336 218.988 36.5462C219.079 36.159 219.194 35.7828 219.331 35.4181C219.468 35.0532 219.628 34.738 219.811 34.4723C219.994 34.2065 220.189 34.0163 220.394 33.9024C220.6 33.7884 220.81 33.7997 221.023 33.9365C221.252 34.0735 221.393 34.3621 221.447 34.8025C221.5 35.2435 221.447 35.7142 221.287 36.2159C221.127 36.7173 220.841 37.1884 220.429 37.6288C220.017 38.07 219.46 38.3583 218.759 38.4951C218.728 38.2826 218.736 38.0015 218.782 37.6519ZM228.001 37.6519C228.047 37.3026 228.115 36.9336 228.206 36.5462C228.298 36.159 228.412 35.7828 228.55 35.4181C228.687 35.0532 228.847 34.738 229.03 34.4723C229.213 34.2065 229.408 34.0163 229.613 33.9024C229.819 33.7884 230.029 33.7997 230.243 33.9365C230.471 34.0735 230.612 34.3621 230.666 34.8025C230.719 35.2435 230.666 35.7142 230.505 36.2159C230.345 36.7173 230.059 37.1884 229.648 37.6288C229.236 38.07 228.679 38.3583 227.978 38.4951C227.947 38.2826 227.955 38.0015 228.001 37.6519ZM236.568 38.9852C236.392 38.7955 236.179 38.6625 235.927 38.5862C235.676 38.5104 235.436 38.5029 235.206 38.5636C234.978 38.6244 234.832 38.784 234.772 39.0422C234.65 39.5286 234.455 40.0262 234.188 40.5349C233.921 41.0444 233.594 41.5267 233.205 41.9824C232.816 42.4381 232.377 42.8412 231.89 43.1905C231.401 43.5401 230.891 43.7908 230.357 43.9423C229.823 44.1101 229.381 44.1289 229.03 43.9996C228.679 43.8706 228.401 43.6503 228.195 43.3389C227.989 43.0271 227.841 42.6512 227.749 42.2103C227.658 41.7699 227.604 41.3142 227.589 40.8428C228.458 40.9038 229.232 40.7483 229.911 40.3755C230.589 40.0034 231.165 39.5092 231.638 38.8939C232.111 38.2788 232.469 37.5874 232.713 36.82C232.957 36.0526 233.094 35.2892 233.125 34.5293C233.14 33.815 233.033 33.211 232.804 32.7171C232.576 32.2235 232.267 31.8395 231.878 31.5662C231.489 31.2924 231.043 31.133 230.54 31.0874C230.037 31.0417 229.525 31.1105 229.007 31.2924C228.382 31.5055 227.852 31.851 227.418 32.3296C226.983 32.8085 226.62 33.3634 226.331 33.9934C226.041 34.6244 225.812 35.3039 225.644 36.0335C225.476 36.7627 225.355 37.481 225.279 38.1874C225.205 38.873 225.164 39.5292 225.155 40.1572C225.097 40.2824 225.036 40.4082 224.969 40.5349C224.702 41.0444 224.375 41.5267 223.986 41.9824C223.597 42.4381 223.159 42.8412 222.671 43.1905C222.183 43.5401 221.672 43.7908 221.138 43.9423C220.604 44.1101 220.162 44.1289 219.811 43.9996C219.46 43.8706 219.182 43.6503 218.976 43.3389C218.771 43.0271 218.622 42.6512 218.53 42.2103C218.439 41.7699 218.385 41.3142 218.37 40.8428C219.239 40.9038 220.013 40.7483 220.692 40.3755C221.37 40.0034 221.946 39.5092 222.419 38.8939C222.892 38.2788 223.25 37.5874 223.494 36.82C223.738 36.0526 223.875 35.2892 223.906 34.5293C223.921 33.815 223.814 33.211 223.586 32.7171C223.357 32.2235 223.048 31.8395 222.659 31.5662C222.27 31.2924 221.824 31.133 221.321 31.0874C220.818 31.0417 220.307 31.1105 219.788 31.2924C219.163 31.5055 218.633 31.851 218.199 32.3296C217.764 32.8085 217.401 33.3634 217.112 33.9934C216.822 34.6244 216.593 35.3039 216.426 36.0335C216.258 36.7627 216.136 37.481 216.06 38.1874C216.017 38.5859 215.988 38.9722 215.966 39.3516C215.819 39.4765 215.675 39.6023 215.522 39.7258C214.996 40.1514 214.443 40.5349 213.864 40.8769C213.284 41.219 212.681 41.5001 212.057 41.7204C211.431 41.9408 210.79 42.0738 210.135 42.1192L211.553 26.9847C211.645 26.6655 211.599 26.3847 211.416 26.1415C211.233 25.8983 210.997 25.7312 210.707 25.6401C210.417 25.5488 210.108 25.5566 209.78 25.6627C209.452 25.7694 209.182 26.0126 208.968 26.3919C208.861 26.9697 208.751 27.7597 208.637 28.7625C208.522 29.7653 208.408 30.8595 208.294 32.0448C208.179 33.23 208.065 34.4532 207.95 35.7142C207.836 36.9759 207.737 38.1533 207.653 39.2472C207.649 39.2958 207.646 39.3398 207.642 39.3878C207.509 39.5005 207.379 39.6142 207.241 39.7258C206.715 40.1514 206.162 40.5349 205.583 40.8769C205.003 41.219 204.401 41.5001 203.776 41.7204C203.15 41.9408 202.509 42.0738 201.854 42.1192L203.272 26.9847C203.364 26.6655 203.318 26.3847 203.135 26.1415C202.952 25.8983 202.715 25.7312 202.426 25.6401C202.136 25.5488 201.827 25.5566 201.499 25.6627C201.172 25.7694 200.901 26.0126 200.687 26.3919C200.581 26.9697 200.47 27.7597 200.356 28.7625C200.241 29.7653 200.127 30.8595 200.013 32.0448C199.898 33.23 199.784 34.4532 199.669 35.7142C199.555 36.9759 199.456 38.1533 199.372 39.2472C199.37 39.2692 199.369 39.2891 199.367 39.3111C199.128 39.4219 198.866 39.519 198.583 39.6006C198.293 39.6844 197.965 39.7339 197.599 39.7489C197.66 39.4751 197.71 39.1712 197.748 38.8369C197.786 38.5029 197.817 38.1533 197.84 37.7884C197.863 37.4241 197.87 37.0591 197.863 36.6945C197.854 36.3296 197.836 35.9956 197.805 35.6914C197.729 35.0385 197.588 34.4191 197.382 33.8338C197.176 33.2491 196.898 32.7593 196.547 32.3637C196.196 31.9687 195.758 31.7027 195.232 31.5662C194.706 31.4294 194.092 31.4748 193.39 31.7027C192.353 31.5662 191.419 31.6613 190.588 31.9878C189.757 32.3149 189.036 32.7894 188.426 33.4122C187.816 34.0357 187.317 34.7684 186.928 35.6119C186.539 36.4551 186.28 37.3214 186.15 38.21C186.095 38.5868 186.069 38.9618 186.06 39.336C185.824 39.8177 185.566 40.2388 185.281 40.5921C184.877 41.0935 184.458 41.5038 184.023 41.8228C183.588 42.142 183.157 42.3852 182.731 42.5523C182.303 42.7198 181.922 42.8337 181.587 42.8941C181.19 42.9702 180.809 42.978 180.443 42.917C180.077 42.8565 179.741 42.6816 179.437 42.3927C179.192 42.1802 179.005 41.8381 178.876 41.3671C178.746 40.896 178.67 40.3608 178.647 39.7602C178.624 39.1599 178.647 38.533 178.716 37.8798C178.785 37.2266 178.902 36.6072 179.07 36.0222C179.238 35.4372 179.451 34.913 179.711 34.4492C179.97 33.9862 180.275 33.6554 180.626 33.4579C180.824 33.4886 180.946 33.606 180.992 33.811C181.038 34.0163 181.049 34.2595 181.026 34.5405C181.004 34.8219 180.969 35.1105 180.923 35.4066C180.878 35.703 180.855 35.9502 180.855 36.1474C180.931 36.5577 181.08 36.877 181.301 37.1048C181.522 37.3327 181.77 37.466 182.044 37.5036C182.319 37.5417 182.589 37.4773 182.856 37.3098C183.123 37.143 183.34 36.877 183.508 36.512C183.523 36.5274 183.546 36.5349 183.577 36.5349L183.897 33.6404C183.989 33.2451 183.927 32.8958 183.714 32.5919C183.5 32.288 183.218 32.113 182.868 32.0676C182.425 31.4294 181.827 31.0914 181.072 31.0532C180.317 31.0154 179.543 31.2623 178.75 31.7941C178.262 32.144 177.831 32.626 177.458 33.2413C177.084 33.857 176.779 34.5405 176.543 35.2926C176.306 36.0448 176.138 36.8391 176.04 37.6748C175.94 38.5104 175.921 39.3236 175.982 40.1133C176.043 40.9038 176.184 41.6484 176.405 42.347C176.626 43.0462 176.935 43.6312 177.332 44.102C177.667 44.5123 178.048 44.8127 178.476 45.0027C178.902 45.1927 179.348 45.3101 179.814 45.3558C180.279 45.4012 180.74 45.3821 181.198 45.2988C181.655 45.2155 182.09 45.0978 182.502 44.9454C183.035 44.7482 183.585 44.4972 184.149 44.1933C184.713 43.8897 185.254 43.5248 185.773 43.0991C186.046 42.8753 186.308 42.6313 186.562 42.3696C186.678 42.6553 186.807 42.9317 186.962 43.1905C187.374 43.8741 187.93 44.429 188.632 44.8544C189.333 45.2797 190.195 45.4844 191.217 45.4697C192.315 45.4544 193.329 45.1774 194.26 44.6378C195.19 44.0988 195.952 43.3042 196.547 42.256C197.438 42.256 198.314 42.1096 199.176 41.819C199.169 41.911 199.162 42.0079 199.155 42.0966C199.094 42.9019 199.063 43.4487 199.063 43.7376C199.048 44.239 199.014 44.8581 198.96 45.5949C198.907 46.332 198.873 47.1069 198.858 47.9198C198.843 48.7326 198.873 49.5532 198.949 50.3817C199.025 51.2096 199.185 51.962 199.429 52.6383C199.673 53.3141 200.02 53.8878 200.47 54.3591C200.92 54.8299 201.511 55.1112 202.243 55.2023C203.021 55.3084 203.692 55.1717 204.256 54.792C204.82 54.412 205.278 53.8918 205.629 53.2308C205.979 52.5695 206.227 51.8061 206.372 50.9401C206.517 50.074 206.559 49.2039 206.498 48.3301C206.437 47.4562 206.277 46.6321 206.017 45.8575C205.758 45.0822 205.4 44.444 204.942 43.9423C205.217 43.8669 205.545 43.7226 205.926 43.5095C206.307 43.2969 206.7 43.0575 207.104 42.7915C207.203 42.7261 207.301 42.6573 207.4 42.5902C207.363 43.1286 207.344 43.5126 207.344 43.7376C207.329 44.239 207.295 44.8581 207.241 45.5949C207.188 46.332 207.154 47.1069 207.138 47.9198C207.123 48.7326 207.154 49.5532 207.23 50.3817C207.306 51.2096 207.466 51.962 207.71 52.6383C207.954 53.3141 208.301 53.8878 208.751 54.3591C209.201 54.8299 209.792 55.1112 210.524 55.2023C211.302 55.3084 211.972 55.1717 212.537 54.792C213.101 54.412 213.558 53.8918 213.91 53.2308C214.26 52.5695 214.508 51.8061 214.653 50.9401C214.798 50.074 214.839 49.2039 214.779 48.3301C214.718 47.4562 214.557 46.6321 214.298 45.8575C214.039 45.0822 213.681 44.444 213.223 43.9423C213.498 43.8669 213.825 43.7226 214.207 43.5095C214.588 43.2969 214.98 43.0575 215.385 42.7915C215.595 42.6533 215.804 42.5107 216.012 42.3641C216.091 43.1072 216.259 43.759 216.528 44.3073C216.856 44.9761 217.302 45.4925 217.867 45.8575C218.431 46.2218 219.094 46.4234 219.857 46.4612C220.62 46.4988 221.45 46.3586 222.351 46.0393C223.021 45.7965 223.605 45.4925 224.1 45.1279C224.596 44.763 225.042 44.3185 225.438 43.7946C225.461 43.7642 225.483 43.7313 225.505 43.7006C225.576 43.9134 225.654 44.1179 225.747 44.3073C226.075 44.9761 226.521 45.4925 227.086 45.8575C227.65 46.2218 228.313 46.4234 229.076 46.4612C229.838 46.4988 230.669 46.3586 231.569 46.0393C232.24 45.7965 232.824 45.4925 233.319 45.1279C233.815 44.763 234.261 44.3185 234.657 43.7946C235.054 43.27 235.416 42.666 235.744 41.9824C236.072 41.2985 236.403 40.5164 236.739 39.6347C236.8 39.3918 236.743 39.1752 236.568 38.9852Z" fill="white"/>
</svg>
