<?xml version="1.0" encoding="utf-8"?>
<!-- Generator: Adobe Illustrator 26.0.1, SVG Export Plug-In . SVG Version: 6.00 Build 0)  -->
<svg version="1.1" id="Layer_1" xmlns="http://www.w3.org/2000/svg" xmlns:xlink="http://www.w3.org/1999/xlink" x="0px" y="0px"
	 viewBox="0 0 242.6 149.9" style="enable-background:new 0 0 242.6 149.9;" xml:space="preserve">
<style type="text/css">
	.st0{fill:#FEFFFF;}
	.st1{fill:#DEDAD6;}
	.st2{fill:#29ABE0;}
	.st3{fill:#FFFFFF;}
	.st4{fill:#FF5E5B;}
	.st5{fill:#434B57;}
</style>
<g>
	<g>
		<path class="st0" d="M43.4,75.2c-2.7,0-4.8-2.4-4.8-5.3V38.5c0-2.9,2.2-5.3,4.8-5.3h76.4c2.7,0,4.8,2.4,4.8,5.3V70
			c0,2.9-2.2,5.3-4.8,5.3H43.4z"/>
		<path class="st1" d="M119.8,34.2c2.1,0,3.8,1.9,3.8,4.3V70c0,2.3-1.7,4.3-3.8,4.3H43.4c-2.1,0-3.8-1.9-3.8-4.3V38.5
			c0-2.3,1.7-4.3,3.8-4.3H119.8 M119.8,32.2H43.4c-3.2,0-5.8,2.8-5.8,6.3V70c0,3.5,2.6,6.3,5.8,6.3h76.4c3.2,0,5.8-2.8,5.8-6.3V38.5
			C125.6,35,123,32.2,119.8,32.2L119.8,32.2z"/>
	</g>
	<g id="g865">
		<g id="g856">
			<g id="Group-4">
				<circle id="Oval" class="st2" cx="59.3" cy="54.2" r="12.9"/>
				<path id="Rectangle-2" class="st3" d="M64.1,48.3h1.3c2.5,0,4.5,2,4.5,4.5l0,0V53c0,2.5-2,4.5-4.5,4.5c0,0,0,0,0,0h-1.3v1.3
					c0,1.1-0.9,2.1-2.1,2.1h-9.7c-1.1,0-2.1-0.9-2.1-2.1l0,0v-9.5c0-0.6,0.5-1,1-1L64.1,48.3z M64.1,50.7v4.4h1.2
					c1.2,0,2.2-1,2.2-2.2c0-1.2-1-2.2-2.2-2.2H64.1z"/>
			</g>
			<g id="Group">
				<path id="Path-2" class="st4" d="M56.9,52.5c0.3-0.9,1.1-1.4,2.3-1.4c1.8,0,2.4,2.2,1.5,3.7c-0.6,1-1.9,2.2-3.8,3.7
					c-1.9-1.5-3.1-2.7-3.8-3.7c-0.9-1.4-0.3-3.7,1.5-3.7C55.8,51.1,56.6,51.6,56.9,52.5z"/>
			</g>
		</g>
		<path id="Ko-f" class="st5" d="M88,58.9c0.1,0.1,0.1,0.2,0.2,0.3c0,0.1,0.1,0.2,0.1,0.4c0,0.3-0.1,0.6-0.4,0.8
			c-0.2,0.2-0.5,0.3-0.8,0.3c-0.2,0-0.3,0-0.4-0.1c-0.1-0.1-0.3-0.2-0.4-0.3l-3.8-5l-1.7,1.6v2.8c0,0.3-0.1,0.6-0.3,0.8
			c-0.2,0.2-0.5,0.3-0.8,0.3c-0.3,0-0.6-0.1-0.8-0.3c-0.2-0.2-0.3-0.5-0.3-0.8V49.4c0-0.3,0.1-0.6,0.3-0.8c0.2-0.2,0.5-0.3,0.8-0.3
			c0.6,0,1,0.4,1.1,1c0,0,0,0.1,0,0.1v4.8l5.6-5.6c0.2-0.2,0.5-0.4,0.9-0.4c0.3,0,0.5,0.1,0.7,0.3c0.2,0.2,0.3,0.4,0.3,0.7
			c0,0.3-0.1,0.5-0.3,0.7L84,53.6L88,58.9z M98.6,56c0,0.9-0.2,1.8-0.6,2.5c-0.4,0.7-1,1.3-1.7,1.7c-1.5,0.8-3.3,0.8-4.9,0
			c-0.7-0.4-1.3-1-1.7-1.7c-0.8-1.6-0.8-3.5,0-5.1c0.4-0.7,1-1.3,1.7-1.7c1.5-0.8,3.3-0.8,4.9,0c0.7,0.4,1.3,1,1.7,1.7
			C98.4,54.2,98.6,55.1,98.6,56L98.6,56z M96.5,56c0-0.5-0.1-1.1-0.4-1.5c-0.2-0.4-0.6-0.8-1-1c-0.8-0.5-1.9-0.5-2.7,0
			c-0.4,0.3-0.7,0.6-1,1c-0.2,0.5-0.4,1-0.4,1.5c0,0.5,0.1,1.1,0.4,1.5c0.2,0.4,0.6,0.8,1,1c0.8,0.5,1.9,0.5,2.7,0
			c0.4-0.3,0.7-0.6,1-1C96.3,57,96.5,56.5,96.5,56L96.5,56z M101.2,56.3c-0.3,0-0.6-0.1-0.8-0.3c-0.2-0.2-0.3-0.5-0.3-0.8
			c0-0.3,0.1-0.5,0.3-0.7c0.2-0.2,0.5-0.3,0.8-0.3h3.1c0.6,0,1.1,0.5,1.1,1c0,0,0,0,0,0c0,0.3-0.1,0.5-0.3,0.7
			c-0.2,0.2-0.5,0.3-0.8,0.3L101.2,56.3z M111.9,49.5c-0.3,0-0.6,0.1-0.8,0.3c-0.2,0.2-0.2,0.5-0.2,0.7v0.8h1.6
			c0.3,0,0.5,0.1,0.7,0.3c0.4,0.4,0.4,1,0,1.4c-0.2,0.2-0.4,0.3-0.7,0.3h-1.6v6.2c0,0.3-0.1,0.6-0.3,0.8c-0.4,0.4-1.1,0.4-1.5,0
			c-0.2-0.2-0.3-0.5-0.3-0.8v-6.2h-1c-0.3,0-0.5-0.1-0.7-0.3c-0.4-0.4-0.4-1,0-1.4c0.2-0.2,0.4-0.3,0.7-0.3h1v-0.8
			c0-0.8,0.3-1.6,0.9-2.2c0.7-0.6,1.7-0.9,2.6-0.8c0.4,0,0.8,0.1,1.1,0.3c0.3,0.2,0.5,0.5,0.5,0.8c0,0.3-0.1,0.5-0.2,0.7
			c-0.2,0.2-0.4,0.3-0.6,0.3c-0.1,0-0.1,0-0.2,0c-0.1,0-0.1,0-0.2,0C112.3,49.5,112.1,49.5,111.9,49.5L111.9,49.5z M116.7,59.6
			c0,0.3-0.1,0.6-0.3,0.8c-0.4,0.4-1.1,0.4-1.5,0c-0.2-0.2-0.3-0.5-0.3-0.8v-7.3c0-0.3,0.1-0.6,0.3-0.8c0.4-0.4,1.1-0.4,1.5,0
			c0.2,0.2,0.3,0.5,0.3,0.8V59.6z M115.6,50.1c-0.3,0-0.6,0-0.8-0.2c-0.2-0.2-0.3-0.4-0.2-0.7v-0.3c0-0.3,0.1-0.5,0.3-0.7
			c0.5-0.3,1.2-0.3,1.7,0c0.2,0.2,0.3,0.4,0.2,0.7v0.3c0,0.3-0.1,0.5-0.3,0.7C116.2,50.1,115.9,50.1,115.6,50.1z"/>
	</g>
</g>
</svg>
