<svg xmlns="http://www.w3.org/2000/svg" viewBox="0 0 158.2517 74">
  <defs>
    <style>
      .cls-1, .cls-3 {
        fill: #fff;
      }

      .cls-1 {
        stroke: #bbb;
        stroke-miterlimit: 10;
      }

      .cls-2 {
        fill: #29abe0;
      }

      .cls-4 {
        fill: #ff5e5b;
      }

      .cls-5 {
        fill: #434b57;
      }
    </style>
  </defs>
  <g id="Layer_2" data-name="Layer 2">
    <g id="svg15">
      <g>
        <rect class="cls-1" x="0.5" y="0.5" width="157.2517" height="73" rx="10.3835"/>
        <g id="g865">
          <g id="g856">
            <g id="Group-4">
              <circle id="Oval" class="cls-2" cx="35.6362" cy="37" r="25.2311"/>
              <path id="Rectangle-2" class="cls-3" d="M44.9009,25.4073h2.4915a8.7014,8.7014,0,0,1,8.7014,8.7014V34.62a8.7014,8.7014,0,0,1-8.7014,8.7014H44.9009v2.6189a4.016,4.016,0,0,1-4.016,4.016H21.9223a4.016,4.016,0,0,1-4.016-4.016V27.4154a2.0081,2.0081,0,0,1,2.008-2.0081Zm0,4.6445v8.6254h2.2714a4.3127,4.3127,0,0,0,0-8.6254Z"/>
            </g>
            <g id="Group">
              <path id="Path-2" class="cls-4" d="M30.8628,33.5855q.93-2.7228,4.4107-2.7228c3.48,0,4.77,4.33,2.9461,7.16q-1.8243,2.8305-7.3568,7.16-5.5326-4.33-7.3568-7.16c-1.8242-2.8305-.5341-7.16,2.9461-7.16Q29.9321,30.8627,30.8628,33.5855Z"/>
            </g>
          </g>
          <path id="Ko-f" class="cls-5" d="M91.5739,46.005a2.4621,2.4621,0,0,1,.345.6728,2.2656,2.2656,0,0,1,.138.7418,1.9811,1.9811,0,0,1-.7073,1.5526,2.4087,2.4087,0,0,1-1.6388.621,1.9053,1.9053,0,0,1-.8626-.207,1.8846,1.8846,0,0,1-.69-.5865l-7.487-9.8676-3.2776,3.14v5.4168a2.0229,2.0229,0,0,1-.6038,1.5181,2.1582,2.1582,0,0,1-1.57.5865,2.08,2.08,0,0,1-1.5353-.6038,2.0375,2.0375,0,0,1-.6038-1.5008V27.5465a2.0087,2.0087,0,0,1,.621-1.5009,2.1827,2.1827,0,0,1,1.5871-.6037,2.0105,2.0105,0,0,1,2.1047,2.1046V36.931L88.4342,26.0629a2.374,2.374,0,0,1,1.6906-.7936,1.6976,1.6976,0,0,1,1.3455.6556,2.1151,2.1151,0,0,1,.5521,1.38,1.8787,1.8787,0,0,1-.6211,1.3455L83.88,35.8269Zm20.77-5.6238a9.86,9.86,0,0,1-1.2421,4.951,8.7747,8.7747,0,0,1-3.3984,3.3985,9.9568,9.9568,0,0,1-9.5053,0,8.81,8.81,0,0,1-3.3812-3.3985,10.4891,10.4891,0,0,1,0-9.902,8.9329,8.9329,0,0,1,3.3812-3.4157,9.8326,9.8326,0,0,1,9.5053,0,8.8962,8.8962,0,0,1,3.3984,3.4157A9.86,9.86,0,0,1,112.344,40.3812Zm-4.14,0a6.3232,6.3232,0,0,0-.7073-3.0189,5.2042,5.2042,0,0,0-1.8976-2.0529,5.17,5.17,0,0,0-5.2788,0,5.2034,5.2034,0,0,0-1.8976,2.0529,6.3232,6.3232,0,0,0-.7073,3.0189,6.2226,6.2226,0,0,0,.7073,3.0017,5.2342,5.2342,0,0,0,1.8976,2.0356,5.17,5.17,0,0,0,5.2788,0,5.2342,5.2342,0,0,0,1.8976-2.0356A6.2226,6.2226,0,0,0,108.2038,40.3812Zm9.1775.69a2.069,2.069,0,0,1-1.5008-.5865,1.98,1.98,0,0,1-.6038-1.4836,1.94,1.94,0,0,1,.6038-1.4491,2.069,2.069,0,0,1,1.5008-.5865h6.0033a2.063,2.063,0,0,1,2.1047,2.1046,1.8847,1.8847,0,0,1-.6038,1.4318,2.103,2.103,0,0,1-1.5009.5693ZM138.324,27.719a1.9007,1.9007,0,0,0-1.6561.6728,2.4617,2.4617,0,0,0-.483,1.4663V31.48h3.14a1.904,1.904,0,0,1,1.38.5348,1.958,1.958,0,0,1,0,2.7256,1.9045,1.9045,0,0,1-1.38.5348h-3.14V47.4886a2.0687,2.0687,0,0,1-.5866,1.5008,2.1245,2.1245,0,0,1-2.9671,0,2.069,2.069,0,0,1-.5865-1.5008V35.2749h-1.8632a1.9044,1.9044,0,0,1-1.38-.5348,1.958,1.958,0,0,1,0-2.7256,1.904,1.904,0,0,1,1.38-.5348h1.8632V29.8926a5.4349,5.4349,0,0,1,1.7768-4.2092,7.3434,7.3434,0,0,1,5.1235-1.6216,4.577,4.577,0,0,1,2.2254.5175,1.6947,1.6947,0,0,1,.9488,1.5871,1.8932,1.8932,0,0,1-.483,1.3456,1.5452,1.5452,0,0,1-1.1731.5175,2.028,2.028,0,0,1-.3623-.0345q-.19-.0345-.3967-.069a5.8972,5.8972,0,0,0-1.38-.207Zm9.419,19.77a2.069,2.069,0,0,1-.5865,1.5008,2.1246,2.1246,0,0,1-2.9672,0,2.069,2.069,0,0,1-.5865-1.5008V33.2393a2.069,2.069,0,0,1,.5865-1.5008,2.1246,2.1246,0,0,1,2.9672,0,2.069,2.069,0,0,1,.5865,1.5008ZM145.6384,28.892a2.7411,2.7411,0,0,1-1.6561-.38,1.6211,1.6211,0,0,1-.483-1.3456v-.6555a1.5643,1.5643,0,0,1,.5175-1.3456,3.8786,3.8786,0,0,1,3.3467,0,1.6213,1.6213,0,0,1,.483,1.3456v.6555a1.5848,1.5848,0,0,1-.5,1.3629A3.0128,3.0128,0,0,1,145.6384,28.892Z"/>
        </g>
      </g>
    </g>
  </g>
</svg>
