<svg xmlns="http://www.w3.org/2000/svg" height="73" viewBox="0 0 169.5952 74">
  <defs>
    <style>
      .cls-1, .cls-3 {
        fill: #fff;
      }

      .cls-1 {
        stroke: #bbb;
        stroke-miterlimit: 10;
      }

      .cls-2 {
        fill: #29abe0;
      }

      .cls-4 {
        fill: #ff5e5b;
      }

      .cls-5 {
        fill: #434b57;
      }
    </style>
  </defs>
  <g id="Layer_2" data-name="Layer 2">
    <g id="svg15">
      <g>
        <rect class="cls-1" x="0.5" y="0.5" width="168.5952" height="73" rx="5.2941"/>
        <g id="g865">
          <g id="g856">
            <g id="Group-4">
              <circle id="Oval" class="cls-2" cx="36.7303" cy="37" r="27.8869"/>
              <path id="Rectangle-2" class="cls-3" d="M46.97,24.1871H49.724a9.6173,9.6173,0,0,1,9.6173,9.6173V34.37A9.6173,9.6173,0,0,1,49.724,43.987H46.97v2.8945A4.4388,4.4388,0,0,1,42.5315,51.32H21.5729a4.4388,4.4388,0,0,1-4.4387-4.4388V26.4065a2.2194,2.2194,0,0,1,2.2193-2.2194Zm0,5.1333v9.5333h2.5105a4.7667,4.7667,0,0,0,0-9.5333Z"/>
            </g>
            <g id="Group">
              <path id="Path-2" class="cls-4" d="M31.4544,33.2261q1.0285-3.0095,4.875-3.0094c3.8464,0,5.2724,4.7854,3.2562,7.9138q-2.0161,3.1286-8.1312,7.9139Q25.34,41.259,23.3233,38.1305c-2.0162-3.1284-.59-7.9138,3.2562-7.9138Q30.426,30.2167,31.4544,33.2261Z"/>
            </g>
          </g>
          <path id="Ko-f" class="cls-5" d="M98.5559,46.9529a2.72,2.72,0,0,1,.3813.7436,2.5032,2.5032,0,0,1,.1526.82,2.1892,2.1892,0,0,1-.7818,1.716,2.662,2.662,0,0,1-1.8113.6864,2.1046,2.1046,0,0,1-.9533-.2288,2.083,2.083,0,0,1-.7627-.6482l-8.275-10.9062-3.6227,3.47v5.987a2.2357,2.2357,0,0,1-.6673,1.6779,2.3852,2.3852,0,0,1-1.7351.6483,2.299,2.299,0,0,1-1.697-.6674,2.2522,2.2522,0,0,1-.6673-1.6588V26.5514a2.22,2.22,0,0,1,.6864-1.6588,2.4121,2.4121,0,0,1,1.7542-.6673,2.222,2.222,0,0,1,2.3261,2.3261V36.9237l12.2027-12.012a2.6238,2.6238,0,0,1,1.8686-.8771,1.8764,1.8764,0,0,1,1.4872.7245,2.3382,2.3382,0,0,1,.61,1.5254,2.0769,2.0769,0,0,1-.6864,1.4872l-8.3131,7.9318Zm22.9564-6.2158a10.8992,10.8992,0,0,1-1.3728,5.4722,9.6986,9.6986,0,0,1-3.7562,3.7561,11.0041,11.0041,0,0,1-10.5058,0,9.7371,9.7371,0,0,1-3.7371-3.7561,11.5929,11.5929,0,0,1,0-10.9444,9.8741,9.8741,0,0,1,3.7371-3.7752,10.8685,10.8685,0,0,1,10.5058,0,9.8339,9.8339,0,0,1,3.7562,3.7752A10.8989,10.8989,0,0,1,121.5123,40.7371Zm-4.576,0a6.9885,6.9885,0,0,0-.7818-3.3367,5.7507,5.7507,0,0,0-2.0973-2.2689,5.7133,5.7133,0,0,0-5.8344,0A5.7516,5.7516,0,0,0,106.1254,37.4a6.99,6.99,0,0,0-.7817,3.3367,6.8777,6.8777,0,0,0,.7817,3.3176,5.7843,5.7843,0,0,0,2.0974,2.25,5.7139,5.7139,0,0,0,5.8344,0,5.7833,5.7833,0,0,0,2.0973-2.25A6.8766,6.8766,0,0,0,116.9363,40.7371ZM127.08,41.5a2.2867,2.2867,0,0,1-1.6588-.6483,2.1893,2.1893,0,0,1-.6673-1.64,2.1442,2.1442,0,0,1,.6673-1.6016,2.287,2.287,0,0,1,1.6588-.6482h6.6352a2.28,2.28,0,0,1,2.3262,2.3261,2.0833,2.0833,0,0,1-.6674,1.5826,2.3248,2.3248,0,0,1-1.6588.6292Zm23.1471-14.7577a2.1009,2.1009,0,0,0-1.83.7436,2.72,2.72,0,0,0-.5339,1.6207v1.7922h3.47a2.1048,2.1048,0,0,1,1.5254.5911,2.1644,2.1644,0,0,1,0,3.0125,2.1048,2.1048,0,0,1-1.5254.5911h-3.47V48.5926a2.2867,2.2867,0,0,1-.6483,1.6588,2.3482,2.3482,0,0,1-3.2794,0,2.2867,2.2867,0,0,1-.6483-1.6588V35.0933h-2.0592a2.1048,2.1048,0,0,1-1.5254-.5911,2.1644,2.1644,0,0,1,0-3.0125,2.1048,2.1048,0,0,1,1.5254-.5911h2.0592V29.1445a6.0071,6.0071,0,0,1,1.9639-4.6523A8.1161,8.1161,0,0,1,150.9133,22.7a5.0591,5.0591,0,0,1,2.46.572,1.8732,1.8732,0,0,1,1.0487,1.7542,2.0924,2.0924,0,0,1-.5339,1.4872,1.7078,1.7078,0,0,1-1.2965.572,2.2331,2.2331,0,0,1-.4-.0382q-.21-.0381-.4386-.0762a6.5123,6.5123,0,0,0-1.5253-.2288Zm10.41,21.85a2.287,2.287,0,0,1-.6482,1.6588,2.3483,2.3483,0,0,1-3.28,0,2.2867,2.2867,0,0,1-.6483-1.6588V32.8434a2.2869,2.2869,0,0,1,.6483-1.6588,2.3483,2.3483,0,0,1,3.28,0,2.2872,2.2872,0,0,1,.6482,1.6588Zm-2.3261-20.554a3.0291,3.0291,0,0,1-1.83-.4195,1.7916,1.7916,0,0,1-.5339-1.4872v-.7245a1.7287,1.7287,0,0,1,.572-1.4872,4.2864,4.2864,0,0,1,3.699,0,1.7917,1.7917,0,0,1,.5339,1.4872v.7245a1.7518,1.7518,0,0,1-.553,1.5063A3.33,3.33,0,0,1,158.3112,28.0386Z"/>
        </g>
      </g>
    </g>
  </g>
</svg>
